<mxfile host="Electron" modified="2023-12-14T11:39:32.953Z" agent="Mozilla/5.0 (X11; Linux x86_64) AppleWebKit/537.36 (KHTML, like Gecko) draw.io/22.1.2 Chrome/114.0.5735.289 Electron/25.9.4 Safari/537.36" etag="6BWqhStOyoa4nOy01MEq" version="22.1.2" type="device">
  <diagram name="PÃ¡gina-1" id="n10CS2j08bvDup4qeac-">
    <mxGraphModel dx="2191" dy="2012" grid="1" gridSize="10" guides="1" tooltips="1" connect="1" arrows="1" fold="1" page="1" pageScale="1" pageWidth="827" pageHeight="1169" math="0" shadow="0">
      <root>
        <mxCell id="0" />
        <mxCell id="1" parent="0" />
        <mxCell id="PWFX1Capweu_nAeeo7yv-1" value="GYM" style="rounded=1;whiteSpace=wrap;html=1;" vertex="1" parent="1">
          <mxGeometry x="-230" y="90" width="120" height="60" as="geometry" />
        </mxCell>
        <mxCell id="PWFX1Capweu_nAeeo7yv-2" value="ENTRENADOR&amp;nbsp;" style="rounded=1;whiteSpace=wrap;html=1;" vertex="1" parent="1">
          <mxGeometry x="90" y="90" width="120" height="60" as="geometry" />
        </mxCell>
        <mxCell id="PWFX1Capweu_nAeeo7yv-4" value="NOMBRE" style="ellipse;whiteSpace=wrap;html=1;" vertex="1" parent="1">
          <mxGeometry x="80" y="-50" width="86" height="60" as="geometry" />
        </mxCell>
        <mxCell id="PWFX1Capweu_nAeeo7yv-5" value="DNI" style="ellipse;whiteSpace=wrap;html=1;" vertex="1" parent="1">
          <mxGeometry x="-20" width="86" height="60" as="geometry" />
        </mxCell>
        <mxCell id="PWFX1Capweu_nAeeo7yv-6" value="PRIMER APELLIDO" style="ellipse;whiteSpace=wrap;html=1;" vertex="1" parent="1">
          <mxGeometry x="176" y="-50" width="86" height="60" as="geometry" />
        </mxCell>
        <mxCell id="PWFX1Capweu_nAeeo7yv-7" value="SALARIO" style="ellipse;whiteSpace=wrap;html=1;" vertex="1" parent="1">
          <mxGeometry x="262" width="86" height="60" as="geometry" />
        </mxCell>
        <mxCell id="PWFX1Capweu_nAeeo7yv-8" value="" style="endArrow=none;html=1;rounded=0;entryX=0;entryY=1;entryDx=0;entryDy=0;exitX=0.908;exitY=-0.017;exitDx=0;exitDy=0;exitPerimeter=0;" edge="1" parent="1" source="PWFX1Capweu_nAeeo7yv-2" target="PWFX1Capweu_nAeeo7yv-7">
          <mxGeometry width="50" height="50" relative="1" as="geometry">
            <mxPoint x="120" y="90" as="sourcePoint" />
            <mxPoint x="170" y="40" as="targetPoint" />
          </mxGeometry>
        </mxCell>
        <mxCell id="PWFX1Capweu_nAeeo7yv-9" value="" style="endArrow=none;html=1;rounded=0;entryX=0.395;entryY=1;entryDx=0;entryDy=0;entryPerimeter=0;exitX=0.75;exitY=0;exitDx=0;exitDy=0;" edge="1" parent="1" source="PWFX1Capweu_nAeeo7yv-2" target="PWFX1Capweu_nAeeo7yv-6">
          <mxGeometry width="50" height="50" relative="1" as="geometry">
            <mxPoint x="150" y="90" as="sourcePoint" />
            <mxPoint x="200" y="40" as="targetPoint" />
          </mxGeometry>
        </mxCell>
        <mxCell id="PWFX1Capweu_nAeeo7yv-10" value="" style="endArrow=none;html=1;rounded=0;entryX=0.628;entryY=1;entryDx=0;entryDy=0;entryPerimeter=0;exitX=0.5;exitY=0;exitDx=0;exitDy=0;" edge="1" parent="1" source="PWFX1Capweu_nAeeo7yv-2" target="PWFX1Capweu_nAeeo7yv-4">
          <mxGeometry width="50" height="50" relative="1" as="geometry">
            <mxPoint x="110" y="70" as="sourcePoint" />
            <mxPoint x="160" y="20" as="targetPoint" />
          </mxGeometry>
        </mxCell>
        <mxCell id="PWFX1Capweu_nAeeo7yv-11" value="" style="endArrow=none;html=1;rounded=0;entryX=0.075;entryY=0.033;entryDx=0;entryDy=0;entryPerimeter=0;exitX=0.953;exitY=0.75;exitDx=0;exitDy=0;exitPerimeter=0;" edge="1" parent="1" source="PWFX1Capweu_nAeeo7yv-5" target="PWFX1Capweu_nAeeo7yv-2">
          <mxGeometry width="50" height="50" relative="1" as="geometry">
            <mxPoint x="60" y="110" as="sourcePoint" />
            <mxPoint x="110" y="60" as="targetPoint" />
          </mxGeometry>
        </mxCell>
      </root>
    </mxGraphModel>
  </diagram>
</mxfile>
